<svg width="109" height="112" viewBox="0 0 109 112" fill="none" xmlns="http://www.w3.org/2000/svg">
<path d="M86.2917 14.8735H22.7083C17.6917 14.8735 13.625 18.9403 13.625 23.9569V87.5402C13.625 92.5567 17.6917 96.6235 22.7083 96.6235H86.2917C91.3082 96.6235 95.375 92.5567 95.375 87.5402V23.9569C95.375 18.9403 91.3082 14.8735 86.2917 14.8735Z" stroke="#E74142" stroke-width="3" stroke-linecap="round" stroke-linejoin="round"/>
<path d="M49.9584 42.1235H68.125C70.5342 42.1235 72.8445 41.1666 74.5479 39.463C76.2514 37.7597 77.2084 35.4493 77.2084 33.0402V14.8735" stroke="#E74142" stroke-width="3" stroke-linecap="round" stroke-linejoin="round"/>
<path d="M40.875 51.207C45.8915 51.207 49.9583 47.1401 49.9583 42.1236C49.9583 37.1071 45.8915 33.0403 40.875 33.0403C35.8585 33.0403 31.7916 37.1071 31.7916 42.1236C31.7916 47.1401 35.8585 51.207 40.875 51.207Z" stroke="#E74142" stroke-width="3" stroke-linecap="round" stroke-linejoin="round"/>
<path d="M31.7916 96.6235V78.4569C31.7916 76.0477 32.7486 73.7374 34.4521 72.034C36.1555 70.3305 38.4658 69.3735 40.875 69.3735H59.0416" stroke="#E74142" stroke-width="3" stroke-linecap="round" stroke-linejoin="round"/>
<path d="M68.125 78.457C73.1415 78.457 77.2083 74.3901 77.2083 69.3736C77.2083 64.3571 73.1415 60.2903 68.125 60.2903C63.1085 60.2903 59.0416 64.3571 59.0416 69.3736C59.0416 74.3901 63.1085 78.457 68.125 78.457Z" stroke="#E74142" stroke-width="3" stroke-linecap="round" stroke-linejoin="round"/>
</svg>
