<svg width="106" height="109" viewBox="0 0 106 109" fill="none" xmlns="http://www.w3.org/2000/svg">
<path d="M95.135 67.9578H75.0833C72.7405 67.9578 70.4938 68.8952 68.8373 70.564C67.1806 72.2326 66.25 74.4958 66.25 76.8557V97.0541" stroke="#E74142" stroke-width="3" stroke-linecap="round" stroke-linejoin="round"/>
<path d="M30.9165 16.083V23.4684C30.9165 27.0082 32.3124 30.403 34.7974 32.906C37.2822 35.409 40.6524 36.8153 44.1665 36.8153C46.5093 36.8153 48.7561 37.7527 50.4126 39.4215C52.0692 41.0901 52.9998 43.3533 52.9998 45.7133C52.9998 50.6071 56.9748 54.6112 61.8332 54.6112C64.176 54.6112 66.4227 53.6738 68.0792 52.005C69.7359 50.3364 70.6665 48.073 70.6665 45.7133C70.6665 40.8194 74.6415 36.8153 79.4998 36.8153H93.5007" stroke="#E74142" stroke-width="3" stroke-linecap="round" stroke-linejoin="round"/>
<path d="M48.5834 98.8781V81.3046C48.5834 78.9446 47.6528 76.6814 45.9961 75.0129C44.3396 73.344 42.0929 72.4066 39.75 72.4066C37.4072 72.4066 35.1605 71.4692 33.504 69.8004C31.8473 68.1318 30.9167 65.8686 30.9167 63.5087V59.0597C30.9167 56.6997 29.9861 54.4365 28.3294 52.768C26.6729 51.0991 24.4262 50.1617 22.0834 50.1617H9.0542" stroke="#E74142" stroke-width="3" stroke-linecap="round" stroke-linejoin="round"/>
<path d="M52.9999 99.1006C77.3925 99.1006 97.1666 79.1818 97.1666 54.6108C97.1666 30.0397 77.3925 10.121 52.9999 10.121C28.6073 10.121 8.83325 30.0397 8.83325 54.6108C8.83325 79.1818 28.6073 99.1006 52.9999 99.1006Z" stroke="#E74142" stroke-width="3" stroke-linecap="round" stroke-linejoin="round"/>
</svg>
