<svg width="80" height="80" viewBox="0 0 80 80" fill="none" xmlns="http://www.w3.org/2000/svg">
<path d="M69.5667 57.5L60.5333 41.9C62.3818 38.505 63.3448 34.6988 63.3333 30.8333C63.3333 24.645 60.8752 18.71 56.4992 14.3342C52.1233 9.95833 46.1885 7.5 40 7.5C33.8117 7.5 27.8768 9.95833 23.501 14.3342C19.125 18.71 16.6667 24.645 16.6667 30.8333C16.6553 34.6988 17.6183 38.505 19.4667 41.9L10.4334 57.5C10.1403 58.0077 9.98623 58.5837 9.98682 59.17C9.9874 59.7562 10.1426 60.332 10.4367 60.8392C10.7308 61.3462 11.1535 61.7668 11.6621 62.0583C12.1707 62.35 12.7472 62.5023 13.3334 62.5H22.9L27.7667 70.7C27.9308 70.9718 28.1328 71.2187 28.3667 71.4333C28.9847 72.029 29.8085 72.3632 30.6667 72.3667H31.1333C31.6367 72.2978 32.1175 72.1148 32.5392 71.8318C32.961 71.5487 33.3123 71.173 33.5667 70.7333L40 59.6667L46.4333 70.8333C46.6915 71.2668 47.0447 71.636 47.4662 71.9132C47.8877 72.1903 48.3665 72.3682 48.8667 72.4333H49.3333C50.2032 72.4385 51.0405 72.1037 51.6667 71.5C51.891 71.2977 52.0822 71.0615 52.2333 70.8L57.1 62.6H66.6667C67.2542 62.6023 67.8317 62.4495 68.341 62.1567C68.8502 61.864 69.273 61.442 69.5667 60.9333C69.8782 60.4148 70.0428 59.8215 70.0428 59.2167C70.0428 58.6118 69.8782 58.0185 69.5667 57.5ZM30.6333 62.6L27.6667 57.6333C27.3747 57.1405 26.9605 56.7313 26.4642 56.4453C25.9678 56.1592 25.4062 56.0058 24.8333 56H19.0667L23.8333 47.7333C27.1158 50.8963 31.2528 53.0285 35.7333 53.8667L30.6333 62.6ZM40 47.5C36.7037 47.5 33.4813 46.5225 30.7405 44.6912C27.9998 42.8598 25.8635 40.2568 24.6022 37.2113C23.3407 34.166 23.0105 30.8148 23.6537 27.5818C24.2967 24.3488 25.8842 21.3792 28.215 19.0482C30.5458 16.7173 33.5155 15.13 36.7485 14.4869C39.9817 13.8438 43.3327 14.1739 46.3782 15.4353C49.4235 16.6968 52.0265 18.833 53.8578 21.5738C55.6893 24.3147 56.6667 27.537 56.6667 30.8333C56.6667 35.2537 54.9108 39.4928 51.7852 42.6185C48.6597 45.744 44.4203 47.5 40 47.5ZM55.1667 56C54.594 56.0058 54.0323 56.1592 53.536 56.4453C53.0397 56.7313 52.6255 57.1405 52.3333 57.6333L49.3667 62.6L44.3 53.7667C48.765 52.9113 52.8867 50.781 56.1667 47.6333L60.9333 55.9L55.1667 56Z" fill="#E74142"/>
</svg>
