<svg width="80" height="80" viewBox="0 0 80 80" fill="none" xmlns="http://www.w3.org/2000/svg">
<path d="M65.4335 12.1669C65.0463 11.8536 64.5937 11.6311 64.1092 11.5157C63.6247 11.4004 63.1203 11.3951 62.6335 11.5002C59.0717 12.2467 55.3947 12.2562 51.829 11.5282C48.2633 10.8001 44.8843 9.34993 41.9002 7.26688C41.3422 6.87978 40.6793 6.67236 40.0002 6.67236C39.321 6.67236 38.6582 6.87978 38.1002 7.26688C35.116 9.34993 31.7372 10.8001 28.1713 11.5282C24.6057 12.2562 20.9287 12.2467 17.3668 11.5002C16.88 11.3951 16.3757 11.4004 15.8912 11.5157C15.4066 11.6311 14.9541 11.8536 14.5668 12.1669C14.1801 12.4806 13.8686 12.877 13.6552 13.3269C13.4417 13.7769 13.3318 14.2689 13.3335 14.7669V39.6002C13.3305 44.3793 14.4694 49.0902 16.6553 53.34C18.8412 57.59 22.0108 61.2563 25.9002 64.0335L38.0668 72.7002C38.6313 73.1022 39.3072 73.3182 40.0002 73.3182C40.6932 73.3182 41.369 73.1022 41.9335 72.7002L54.1002 64.0335C57.9897 61.2563 61.1592 57.59 63.345 53.34C65.531 49.0902 66.6698 44.3793 66.6668 39.6002V14.7669C66.6685 14.2689 66.5587 13.7769 66.3452 13.3269C66.1318 12.877 65.8203 12.4806 65.4335 12.1669ZM60.0002 39.6002C60.0027 43.316 59.1178 46.9788 57.419 50.2837C55.7202 53.5883 53.2567 56.4397 50.2335 58.6002L40.0002 65.9002L29.7668 58.6002C26.7437 56.4397 24.2802 53.5883 22.5813 50.2837C20.8825 46.9788 19.9977 43.316 20.0002 39.6002V18.6002C26.9883 19.1983 33.987 17.577 40.0002 13.9669C46.0133 17.577 53.0122 19.1983 60.0002 18.6002V39.6002ZM45.1335 31.9668L36.1668 40.9668L33.2002 37.9668C32.5725 37.3392 31.7212 36.9865 30.8335 36.9865C29.9458 36.9865 29.0945 37.3392 28.4668 37.9668C27.8392 38.5945 27.4865 39.4458 27.4865 40.3335C27.4865 41.2212 27.8392 42.0725 28.4668 42.7002L33.8002 48.0335C34.11 48.346 34.4787 48.594 34.885 48.7632C35.2912 48.9323 35.7268 49.0195 36.1668 49.0195C36.6068 49.0195 37.0425 48.9323 37.4488 48.7632C37.855 48.594 38.2237 48.346 38.5335 48.0335L50.0002 36.6668C50.6278 36.0392 50.9805 35.1878 50.9805 34.3002C50.9805 33.4125 50.6278 32.5612 50.0002 31.9335C49.3725 31.3058 48.5212 30.9532 47.6335 30.9532C46.7458 30.9532 45.8945 31.3058 45.2668 31.9335L45.1335 31.9668Z" fill="#E74142"/>
</svg>
