<svg width="80" height="80" viewBox="0 0 80 80" fill="none" xmlns="http://www.w3.org/2000/svg">
<path d="M33.5335 7.23347C32.9823 6.86087 32.3322 6.66177 31.6668 6.66177C31.0015 6.66177 30.3513 6.86087 29.8002 7.23347C28.8002 7.90014 5.8335 23.9002 5.8335 47.5002C5.8335 54.3515 8.55521 60.9223 13.3999 65.767C18.2447 70.6118 24.8153 73.3335 31.6668 73.3335C38.5183 73.3335 45.089 70.6118 49.9338 65.767C54.7785 60.9223 57.5002 54.3515 57.5002 47.5002C57.5002 23.5002 34.5002 7.86681 33.5335 7.23347ZM31.6668 66.6668C26.5862 66.658 21.7162 64.6358 18.1237 61.0433C14.5311 57.4507 12.509 52.5808 12.5002 47.5002C12.5002 30.8335 26.5335 18.2668 31.6668 14.1668C36.8335 18.2002 50.8335 30.8335 50.8335 47.5002C50.8247 52.5808 48.8025 57.4507 45.21 61.0433C41.6175 64.6358 36.7475 66.658 31.6668 66.6668Z" fill="#E74142"/>
<path d="M50.4876 57.5C52.1997 58.0473 54.0016 58.3333 55.8331 58.3333C60.4744 58.3333 64.9256 56.4963 68.2074 53.2263C71.4892 49.9565 73.3331 45.5215 73.3331 40.8972C73.3331 24.6983 57.7524 14.1467 57.0976 13.7192C56.7242 13.4677 56.2837 13.3333 55.8331 13.3333C55.3824 13.3333 54.9419 13.4677 54.5686 13.7192C54.1884 13.9717 49.1211 17.484 44.7476 23.3333" stroke="#E74142" stroke-width="4"/>
</svg>
